<svg enable-background="new 0 0 512 512" viewBox="0 0 512 512" xmlns="http://www.w3.org/2000/svg"><g fill="#04afef"><path d="m166 150.3h-60c-8.3 0-15 6.7-15 15v60.1c0 8.3 6.7 15 15 15h60c8.3 0 15-6.7 15-15v-60.1c0-8.3-6.7-15-15-15zm-15 60.1h-30v-30.1h30z"/><path d="m166 270.5h-60c-8.3 0-15 6.7-15 15v60.1c0 8.3 6.7 15 15 15h60c8.3 0 15-6.7 15-15v-60.1c0-8.2-6.7-15-15-15zm-15 60.1h-30v-30.1h30z"/><path d="m286 150.3h-60c-8.3 0-15 6.7-15 15v60.1c0 8.3 6.7 15 15 15h60c8.3 0 15-6.7 15-15v-60.1c0-8.3-6.7-15-15-15zm-15 60.1h-30v-30.1h30z"/><path d="m473.5 397.8-13.9-8.1c-10-5.8-10-20.2 0-26l13.9-8.1c7.2-4.1 9.6-13.3 5.5-20.5l-30-52.1c-4.1-7.2-13.3-9.7-20.5-5.5l-13.9 8.1c-10 5.8-22.5-1.4-22.5-13v-16.1c0-8.3-6.7-15-15-15h-16.1v-186.4c0-30.4-24.7-55.1-55-55.1h-220c-30.3 0-55 24.7-55 55.1v401.8c0 30.4 24.7 55.1 55 55.1h291.1c8.3 0 15-6.7 15-15v-16.1c0-11.6 12.5-18.8 22.5-13l13.9 8.1c7.2 4.1 16.3 1.7 20.5-5.5l30-52.1c4.1-7.3 1.7-16.4-5.5-20.6zm-156.4-156.3c-8.3 0-15 6.7-15 15v16.1c0 11.6-12.5 18.8-22.5 13l-13.9-8.1c-7.2-4.2-16.4-1.7-20.5 5.5l-30 52.1c-4.1 7.2-1.7 16.4 5.5 20.5l13.9 8.1c10 5.8 10 20.2 0 26l-1.8 1h-171.8v-270.5h270v121.2h-13.9zm-231.1-211.4h220c13.8 0 25 11.2 25 25.1v35.1h-270v-35.2c0-13.8 11.2-25 25-25zm-25 426.8v-36.1h155.6l28.6 49.6c4.1 7.2 13.3 9.7 20.5 5.5l13.9-8.1c9.1-5.3 22.5-.1 22.5 14.1h-216.1c-13.8 0-25-11.2-25-25zm384.5-40.6-15 26c-31.1-18-68.4 3-68.4 39.6-13.1 0-20.3 0-30 0 0-36.6-37.3-57.6-68.4-39.6l-15-26c31.3-18.2 31.4-61 0-79.2l15-26c31.1 18 68.4-3 68.4-39.6h30c0 36 36.8 57.9 68.4 39.6l15 26c-30.9 17.9-31.8 60.8 0 79.2z"/><path d="m347.1 331.6c-24.8 0-45 20.2-45 45.1s20.2 45.1 45 45.1 45-20.2 45-45.1c0-24.8-20.2-45.1-45-45.1zm0 60.2c-8.3 0-15-6.7-15-15s6.7-15 15-15 15 6.7 15 15c0 8.2-6.8 15-15 15z"/></g></svg>