<svg enable-background="new 0 0 512 512" viewBox="0 0 512 512" xmlns="http://www.w3.org/2000/svg"><g fill="#04afef"><path d="m229.7 141.7-11.3-11.3-24 24c-3.1 3.1-3.1 8.2 0 11.3l24 24 11.3-11.3-18.4-18.4z"/><path d="m317.7 154.3-24-24-11.3 11.3 18.3 18.3-18.3 18.3 11.3 11.3 24-24c3.1-3 3.1-8 0-11.2z"/><path d="m230.7 152h50.6v16h-50.6z" transform="matrix(.3164 -.9486 .9486 .3164 23.1935 352.2331)"/><path d="m368 0h-224c-8.8 0-16 7.2-16 16v480c0 8.8 7.2 16 16 16h224c8.8 0 16-7.2 16-16v-480c0-8.8-7.2-16-16-16zm0 496h-224v-480h224z"/><path d="m200 80v-16h-32c-4.4 0-8 3.6-8 8v320c0 4.4 3.6 8 8 8h32v-16h-24v-304z"/><path d="m344 64h-32v16h24v304h-24v16h32c4.4 0 8-3.6 8-8v-320c0-4.4-3.6-8-8-8z"/><path d="m216 64h80v16h-80z"/><path d="m256 416c-17.6 0-32 14.4-32 32s14.4 32 32 32 32-14.4 32-32-14.4-32-32-32zm0 48c-8.8 0-16-7.2-16-16s7.2-16 16-16 16 7.2 16 16-7.2 16-16 16z"/><path d="m224 32h64v16h-64z"/><path d="m216 384h80v16h-80z"/><path d="m112 64v-16h-104c-4.4 0-8 3.6-8 8v64 336c0 4.4 3.6 8 8 8h104v-16h-96v-320h96v-16h-96v-48z"/><path d="m32 80h16v16h-16z"/><path d="m64 80h16v16h-16z"/><path d="m96 80h16v16h-16z"/><path d="m504 48h-104v16h96v48h-96v16h96v320h-96v16h104c4.4 0 8-3.6 8-8v-336-64c0-4.4-3.6-8-8-8z"/><path d="m432 80h48v16h-48z"/><path d="m200 224h32v16h-32z"/><path d="m248 224h64v16h-64z"/><path d="m280 256h32v16h-32z"/><path d="m200 256h64v16h-64z"/><path d="m200 288h32v16h-32z"/><path d="m248 288h64v16h-64z"/><path d="m280 320h32v16h-32z"/><path d="m200 320h64v16h-64z"/></g></svg>